<?xml version="1.0" encoding="iso-8859-1"?>
<!-- Generator: Adobe Illustrator 19.0.0, SVG Export Plug-In . SVG Version: 6.00 Build 0)  -->
<svg version="1.1" id="Layer_1" xmlns="http://www.w3.org/2000/svg" xmlns:xlink="http://www.w3.org/1999/xlink" x="0px" y="0px"
	 viewBox="0 0 512 512" style="enable-background:new 0 0 512 512;" xml:space="preserve">
<g>
	<g>
		<path d="M467.592,274.939V112.327h31.347V52.245c0-10.082-8.203-18.286-18.286-18.286H240.327
			c-10.082,0-18.286,8.203-18.286,18.286v60.082h31.347v162.612h-47.02v-37.224h23.51v-15.673H20.898v15.673h23.51v37.224H0v15.673
			h512v-15.673H467.592z M117.551,274.939H60.082v-37.224h57.469V274.939z M190.694,274.939h-57.469v-37.224h57.469V274.939z
			 M237.714,96.653V52.245c0-1.416,1.196-2.612,2.612-2.612h39.184v28.735h15.673V49.633h57.469v28.735h15.673V49.633h57.469v28.735
			h15.673V49.633h39.184c1.416,0,2.612,1.196,2.612,2.612v44.408H237.714z M399.673,274.286h-78.367v-78.367h31.347v49.633h15.673
			v-49.633h31.347V274.286z M451.918,274.286h-36.571v-78.367h13.061v-15.673H292.571v15.673h13.061v78.367h-36.571V112.327h182.857
			V274.286z"/>
	</g>
</g>
<g>
	<g>
		<rect x="308.245" y="138.449" width="57.469" height="15.673"/>
	</g>
</g>
<g>
	<g>
		<rect x="381.388" y="138.449" width="20.898" height="15.673"/>
	</g>
</g>
<g>
	<g>
		<path d="M104.49,28.735c-30.249,0-54.857,24.608-54.857,54.857c0,30.249,24.608,54.857,54.857,54.857
			c30.249,0,54.857-24.608,54.857-54.857C159.347,53.343,134.739,28.735,104.49,28.735z M104.49,122.775
			c-21.606,0-39.184-17.577-39.184-39.184s17.577-39.184,39.184-39.184s39.184,17.577,39.184,39.184S126.096,122.775,104.49,122.775
			z"/>
	</g>
</g>
<g>
	<g>
		<rect y="336.98" width="512" height="15.673"/>
	</g>
</g>
<g>
	<g>
		<rect y="399.673" width="512" height="15.673"/>
	</g>
</g>
<g>
	<g>
		<rect x="31.347" y="446.694" width="26.122" height="15.674"/>
	</g>
</g>
<g>
	<g>
		<rect x="104.49" y="467.592" width="26.122" height="15.673"/>
	</g>
</g>
<g>
	<g>
		<rect x="188.082" y="436.245" width="26.122" height="15.673"/>
	</g>
</g>
<g>
	<g>
		<rect x="261.224" y="467.592" width="26.122" height="15.673"/>
	</g>
</g>
<g>
	<g>
		<rect x="334.367" y="436.245" width="26.122" height="15.673"/>
	</g>
</g>
<g>
	<g>
		<rect x="397.061" y="467.592" width="26.122" height="15.673"/>
	</g>
</g>
<g>
	<g>
		<rect x="459.755" y="436.245" width="26.122" height="15.673"/>
	</g>
</g>
<g>
</g>
<g>
</g>
<g>
</g>
<g>
</g>
<g>
</g>
<g>
</g>
<g>
</g>
<g>
</g>
<g>
</g>
<g>
</g>
<g>
</g>
<g>
</g>
<g>
</g>
<g>
</g>
<g>
</g>
</svg>
