<svg  width="198.753" height="191.908" viewBox="0 0 52.587 50.776" xml:space="preserve" xmlns="http://www.w3.org/2000/svg">
  <path fill={fill} stroke={stroke} style="stroke-width:.264583" d="M29.65 121.235c-5.33-2.154-6.45-6.576-2.867-11.322 1.263-1.672 1.548-1.728.788-.154-2.826 5.849 2.939 8.891 12.172 6.424 12.461-3.33 14.035-3.586 17.303-2.816 1.992.47 4.616 1.747 5.37 2.615.478.55.478.55-.448-.004-3.823-2.284-7.937-1.84-15.208 1.64-8.19 3.921-13.551 5.054-17.11 3.616zm9.522.034c0-.077 9.01-3.92 9.847-4.31 5.981-2.785 10.69-2.559 13.409-.076.89.813.925.891.334.737-5.9-1.539-12.66.62-14.294.99-3.144.71-9.296 2.737-9.296 2.66zm-2.932-7.594c-3.573-1.275-5.528-4.372-2.807-4.446 4.647-.125 5.562.156 7.702 2.368 1.346 1.39-2.385 2.974-4.895 2.078zm4.995-3.052c-1.763-1.884-2.154-3.399-1.507-5.832.135-.51.377-1.431.537-2.048.446-1.72 3.686 2.17 3.706 4.45.005.587-1.146 4.394-1.409 4.657-.05.05-.648-.5-1.327-1.227zm10.21-.726c-2.392-.88-.058-3.927 3.144-4.105 5.287-.293 5.911-.016 4.23 1.88-2.574 2.904-4.196 3.394-7.373 2.225zm-2.541-1.666c-1.73-4.834-1.644-5.712.847-8.534 1.519-1.72 1.525-1.714 2.21 2.184.46 2.621-2.323 8.402-3.057 6.35zm-18.024-.416c-3.672-1.905-4.708-4.843-1.653-4.69 3.544.176 8.728 3.029 7.573 4.167-.75.738-4.815 1.097-5.92.523zm5.598-2.253c-2.015-2.354-2.11-3.642-.571-7.752.583-1.558.583-1.558 1.865.239 1.69 2.369 1.878 3.963.764 6.511-.996 2.28-.974 2.268-2.058 1.002zm19.935-1.2c-1.856-.52-1.813-.399-.648-1.82 1.64-2.002 8.066-4.035 9.297-2.942.175.156-2.686 3.67-3.484 4.278-1.192.909-3.037 1.082-5.165.485zm-3.148-2.86c-1.385-3.054-1.257-4.429.65-6.983 1.326-1.777 1.283-1.8 2.245 1.233.985 3.108.868 3.979-.818 6.112-1.304 1.65-1.153 1.676-2.077-.361zm-26.222.225c-1.397-.609-2.594-1.899-3.596-3.875-1.096-2.162-1.094-2.075-.042-1.772.473.137 1.634.382 2.58.545 2.735.472 3.757 1.145 5.637 3.717.918 1.255.96 1.185-.809 1.387-.836.095-1.819.225-2.182.287-.364.063-1.078-.067-1.588-.289zm5.076-1.89c-1.669-2.608-1.743-3.614-.463-6.263 1.566-3.238 1.521-3.222 2.661-.958 1.77 3.514-.273 10.228-2.198 7.221zm28.857-1.453c-1.953-.3-1.933-.217-.504-2.059 1.433-1.846 2.47-2.54 4.357-2.913.828-.164 2.13-.45 2.894-.636.764-.186 1.389-.294 1.389-.24 0 1.373-3.311 5.506-4.726 5.9-1.082.3-1.124.3-3.41-.052zm-3.44-2.689c-1.49-2.568-.886-8.366.872-8.366 1.31 0 2.733 6.053 1.839 7.819-1.393 2.75-1.428 2.756-2.71.547zm-34.065-.804c-1.607-.717-2.73-2.447-3.666-5.644-.406-1.388-.406-1.388.36-.992 1.23.636 1.295.502.767-1.557-.574-2.243-1.026-5.957-.745-6.13.104-.065.27.626.37 1.535.171 1.573.647 3.963 1.205 6.05.229.858.418 1.016 1.816 1.526 1.951.712 4.788 3.938 4.788 5.446 0 .3-4.143.102-4.895-.234zm4.799-1.709c-.976-2.175-.931-3.533.172-5.167.87-1.288.87-1.288.431-3.038-.568-2.262-.874-4.792-.579-4.792.127 0 .375.998.551 2.218.5 3.46.762 4.042 1.434 3.189.633-.806.792-.68 1.361 1.075.902 2.784.663 4.046-1.215 6.416-1.573 1.985-1.314 1.973-2.155.1zm35.021-1.497c0-1.493 2.793-4.678 4.743-5.407 1.762-.66 2.266-1.84 2.938-6.886.165-1.237.366-2.309.447-2.382.294-.264-.193 4.15-.678 6.151-.526 2.165-.47 2.286.75 1.655.767-.396.767-.396.36.992-.909 3.11-1.99 4.812-3.586 5.645-.68.356-4.974.556-4.974.232zm-2.2-2.103c-1.81-2.406-1.968-3.172-1.209-5.88.682-2.43.76-2.51 1.442-1.47.625.955.988.172 1.47-3.172.183-1.273.431-2.315.55-2.315.29 0-.021 2.622-.576 4.847-.424 1.697-.424 1.838-.001 2.381 1.494 1.92 1.66 3.454.62 5.77-.85 1.895-.741 1.903-2.296-.161zm-36.144-.75c-1.71-.875-2.08-1.54-2.531-4.546-.479-3.194-.536-7.276-.101-7.276.201 0 .241.356.122 1.1-.097.606-.098 1.62-.003 2.253.298 1.988 1.566-.4 1.766-3.327.084-1.211.293-2.338.466-2.504.242-.23.28-.055.163.758-.526 3.67-.505 3.894.487 5.027.926 1.058.926 1.058.969-1.058.043-2.117.043-2.117.237.529.107 1.455.387 3.377.622 4.271.539 2.045-.079 5.486-.965 5.379-.034-.004-.588-.277-1.232-.606zm39.822-4.05c-.793-1.418-.83-1.97-.284-4.082.22-.85.502-2.772.625-4.272.224-2.725.224-2.725.265-.609.04 2.117.04 2.117.94 1.059.627-.737.87-1.26.802-1.72-.328-2.223-.393-4.345-.126-4.078.159.158.363 1.337.453 2.62.266 3.761 1.503 5.412 1.612 2.15.098-2.92.587-3.002.58-.097-.012 5.617-.83 8.58-2.641 9.566-1.586.863-1.421.903-2.226-.537z" transform="translate(-19.535 -71.057)"/>
</svg>
